STARTFONT 2.1
FONT HAN-GB2312
SIZE 10 72 72
FONTBOUNDINGBOX 6 10 0 0
STARTPROPERTIES 1
BITCOUNT 8
ENDPROPERTIES
CHARS 25
STARTCHAR  00A4
ENCODING  164
SWIDTH  1000 0
DWIDTH  7 0
BBX  7 7 0 0
BITMAP
00000000000000
10E0C0F0A0C000
00E08030C0C000
30FF100040FF00
10F06000A0C000
10F0E0FFE0E000
00100020001000
ENDCHAR
STARTCHAR  00A7
ENCODING  167
SWIDTH  1000 0
DWIDTH  6 0
BBX  4 10 1 -3
BITMAP
30E0E030
80A06040
40F04000
F0A0F030
E06080E0
30F080F0
0040FF60
4030A080
60FFF030
00101000
ENDCHAR
STARTCHAR  00A8
ENCODING  168
SWIDTH  1000 0
DWIDTH  3 0
BBX  4 2 -1 5
BITMAP
10E080C0
00100010
ENDCHAR
STARTCHAR  00B0
ENCODING  176
SWIDTH  1000 0
DWIDTH  5 0
BBX  3 4 1 3
BITMAP
80F080
F030C0
A0FFA0
001000
ENDCHAR
STARTCHAR  00B1
ENCODING  177
SWIDTH  1000 0
DWIDTH  7 0
BBX  5 5 1 0
BITMAP
0030FF0000
F0F0FFF0F0
2040FF2020
2040FF2020
FFFFFFFFFF
ENDCHAR
STARTCHAR  00E0
ENCODING  224
SWIDTH  1000 0
DWIDTH  7 0
BBX  6 7 0 0
BITMAP
0000A0C00000
000000A04000
0040E0FFE030
10F0802060E0
30FF100000F0
00F0802080F0
0040E0FFC0F0
ENDCHAR
STARTCHAR  00E1
ENCODING  225
SWIDTH  1000 0
DWIDTH  7 0
BBX  6 7 0 0
BITMAP
000000A0C000
000020A01000
0040E0FFE030
10F0802060E0
30FF100000F0
00F0802080F0
0040E0FFC0F0
ENDCHAR
STARTCHAR  00E8
ENCODING  232
SWIDTH  1000 0
DWIDTH  6 0
BBX  7 7 0 0
BITMAP
0000C0A0000000
000010A0100000
0040E0FFC02000
00F08060F0A000
30FFC0E0608000
10F0C020A0E000
0030E0FFC03000
ENDCHAR
STARTCHAR  00E9
ENCODING  233
SWIDTH  1000 0
DWIDTH  6 0
BBX  7 7 0 0
BITMAP
000000C0A00000
000030A0000000
0040E0FFC02000
00F08060F0A000
30FFC0E0608000
10F0C020A0E000
0030E0FFC03000
ENDCHAR
STARTCHAR  00EA
ENCODING  234
SWIDTH  1000 0
DWIDTH  6 0
BBX  7 7 0 0
BITMAP
000060FF400000
0010C040A00000
0040E0FFC02000
00F08060F0A000
30FFC0E0608000
10F0C020A0E000
0030E0FFC03000
ENDCHAR
STARTCHAR  00EC
ENCODING  236
SWIDTH  1000 0
DWIDTH  3 0
BBX  4 7 -1 0
BITMAP
10C08000
0010A010
0030FF00
0030FF00
0030FF00
0030FF00
0030FF00
ENDCHAR
STARTCHAR  00ED
ENCODING  237
SWIDTH  1000 0
DWIDTH  3 0
BBX  3 7 0 0
BITMAP
00C080
408000
30FF00
30FF00
30FF00
30FF00
30FF00
ENDCHAR
STARTCHAR  00F2
ENCODING  242
SWIDTH  1000 0
DWIDTH  7 0
BBX  6 7 0 0
BITMAP
0000C0A00000
000010A01000
0030E0FFC020
00F08020A0E0
30FF100040FF
00F08020A0C0
0030E0FFE020
ENDCHAR
STARTCHAR  00F3
ENCODING  243
SWIDTH  1000 0
DWIDTH  7 0
BBX  6 7 0 0
BITMAP
000000C0A000
000030A00000
0030E0FFC020
00F08020A0E0
30FF100040FF
00F08020A0C0
0030E0FFE020
ENDCHAR
STARTCHAR  00F7
ENCODING  247
SWIDTH  1000 0
DWIDTH  8 0
BBX  6 6 1 0
BITMAP
000060A00000
000080E00000
000000000000
F0F0F0F0F0F0
202080E02020
000080E00000
ENDCHAR
STARTCHAR  00F9
ENCODING  249
SWIDTH  1000 0
DWIDTH  6 0
BBX  5 7 0 0
BITMAP
0030F01000
0000406000
30FF0030FF
30FF0030FF
30FF0030FF
10FF4080E0
0080F0E040
ENDCHAR
STARTCHAR  00FA
ENCODING  250
SWIDTH  1000 0
DWIDTH  6 0
BBX  5 7 0 0
BITMAP
000040E010
0000803000
30FF0030FF
30FF0030FF
30FF0030FF
10FF4080E0
0080F0E040
ENDCHAR
STARTCHAR  00FC
ENCODING  252
SWIDTH  1000 0
DWIDTH  6 0
BBX  5 7 0 0
BITMAP
0000E080E0
0000100010
30FF0030FF
30FF0030FF
30FF0030FF
10FF4080E0
0080F0E040
ENDCHAR
STARTCHAR  2014
ENCODING  8212
SWIDTH  1000 0
DWIDTH  10 0
BBX  12 2 -1 1
BITMAP
30F0F0F0F0F0F0F0F0F0F010
002020202020202020202000
ENDCHAR
STARTCHAR  2018
ENCODING  8216
SWIDTH  1000 0
DWIDTH  2 0
BBX  2 3 0 4
BITMAP
A080
60C0
0020
ENDCHAR
STARTCHAR  2019
ENCODING  8217
SWIDTH  1000 0
DWIDTH  2 0
BBX  2 3 0 4
BITMAP
40E0
80A0
1010
ENDCHAR
STARTCHAR  201C
ENCODING  8220
SWIDTH  1000 0
DWIDTH  4 0
BBX  4 3 0 4
BITMAP
A080C060
60A08080
10201020
ENDCHAR
STARTCHAR  201D
ENCODING  8221
SWIDTH  1000 0
DWIDTH  4 0
BBX  4 3 0 4
BITMAP
80A0A080
A060C040
20102000
ENDCHAR
STARTCHAR  2026
ENCODING  8230
SWIDTH  1000 0
DWIDTH  10 0
BBX  10 2 0 0
BITMAP
00100000000000001000
00E04000A0A00040F000
ENDCHAR
STARTCHAR  2030
ENCODING  8240
SWIDTH  1000 0
DWIDTH  10 0
BBX  12 7 -1 0
BITMAP
00A0F0C01020E01000000000
20E030E040C0400000000000
00C0FFE080A0000000000000
00001020F0E0E06060E0A000
000000C0E08060E0E030E030
00008080A08060F0E030E040
0030C00030E0F06060F0A000
ENDCHAR
ENDFONT
